<svg width="40" height="40" viewBox="0 0 40 40" fill="none" xmlns="http://www.w3.org/2000/svg">
<path d="M40 0H0V40H40V0Z" fill="white" fill-opacity="0.01"/>
<path d="M19.9263 9.43151C19.9947 7.57189 20.5172 5.93845 21.4814 4.573C22.4506 3.20063 24.0527 2.22575 26.2458 1.67334C26.2604 1.74087 26.2756 1.80845 26.2913 1.87576V2.2291C26.2913 3.0303 26.097 3.94902 25.7134 4.95956C25.3114 5.93801 24.6832 6.85891 23.8487 7.69001C23.0682 8.42234 22.3463 8.90717 21.7082 9.12634C21.4975 9.18926 21.2087 9.25117 20.8599 9.30692C20.5497 9.35526 20.2384 9.39676 19.9263 9.43151Z" fill="#2C2C2C"/>
<path d="M20.2922 12.1908C17.815 12.1908 16.0951 10 13.6515 10C11.208 10 6.1739 12.246 6.1739 20C6.1739 27.754 10.6442 32.75 11.1442 33.3333C11.6442 33.9167 12.8005 35.4163 14.5919 35.4163C16.3834 35.4163 18.3447 33.9918 20.2922 33.9918C22.2397 33.9918 24.6911 35.4163 26.2914 35.4163C27.8917 35.4163 28.55 34.7638 29.6392 33.6386C30.7282 32.5133 32.8057 29.0794 33.5312 27.0184C32.3362 26.3071 29.1688 24.3759 29.1688 20C29.1688 17.0827 30.2349 14.6592 32.3672 12.7293C30.9683 10.9097 29.346 10 27.5001 10C24.7312 10 22.7694 12.1908 20.2922 12.1908Z" fill="#2C2C2C" stroke="#2C2C2C" stroke-width="2" stroke-linejoin="round"/>
</svg>
