<svg width="40" height="40" viewBox="0 0 40 40" fill="none" xmlns="http://www.w3.org/2000/svg">
<path d="M40 0H0V40H40V0Z" fill="white" fill-opacity="0.01"/>
<path d="M30 9.49983C30 10.0521 29.5523 10.4998 29 10.4998H26.0407H24.9893C24.0841 10.4998 23.3502 11.2337 23.3502 12.1389V16.8896C23.3502 17.4419 23.798 17.8896 24.3502 17.8896H28.8344C29.4473 17.8896 29.916 18.4359 29.8228 19.0416L29.1565 23.3724C29.0815 23.8602 28.6617 24.2203 28.1682 24.2203H24.3503C23.798 24.2203 23.3502 24.668 23.3502 25.2203V34.8334C23.3502 35.3857 22.9025 35.8334 22.3502 35.8334H17.0376C16.4853 35.8334 16.0376 35.3857 16.0376 34.8334V25.2203C16.0376 24.668 15.5899 24.2203 15.0376 24.2203H11C10.4477 24.2203 10 23.7726 10 23.2203V18.8896C10 18.3373 10.4477 17.8896 11 17.8896H14.9725C15.5197 17.8896 15.9653 17.4497 15.9724 16.9026L16.0376 11.8803L16.0265 10.7893C15.9899 7.16856 18.8954 4.2037 22.5162 4.16708C22.5382 4.16686 22.5603 4.16675 22.5824 4.16675H29C29.5523 4.16675 30 4.61446 30 5.16675V9.49983Z" fill="#4D70A7" stroke="#4D70A7" stroke-linejoin="round"/>
</svg>
