<svg width="20" height="20" viewBox="0 0 20 20" fill="none" xmlns="http://www.w3.org/2000/svg">
<path d="M6.98584 9.99782L8.98536 11.9973L12.9844 7.99829" stroke="#00CC66" stroke-width="1.5" stroke-linecap="round" stroke-linejoin="round"/>
<path d="M9.985 1C12.3203 3.06608 15.3682 4.14182 18.483 3.99929C18.9365 5.54193 19.0752 7.16 18.891 8.75734C18.7068 10.3547 18.2034 11.8987 17.4106 13.2976C16.6179 14.6965 15.5521 15.9218 14.2764 16.9007C13.0008 17.8796 11.5414 18.592 9.985 18.9957C8.42858 18.592 6.9692 17.8796 5.69357 16.9007C4.41794 15.9218 3.35209 14.6965 2.55936 13.2976C1.76664 11.8987 1.26321 10.3547 1.079 8.75734C0.894781 7.16 1.03354 5.54193 1.48702 3.99929C4.60181 4.14182 7.64972 3.06608 9.985 1" stroke="#00CC66" stroke-width="1.5" stroke-linecap="round" stroke-linejoin="round"/>
</svg>
